<svg xmlns="http://www.w3.org/2000/svg" viewBox="0 0 512 446.64">
    <defs>
        <style>
            .cls-1{fill:#0f72b6}
        </style>
    </defs>
    <g id="Layer_2" data-name="Layer 2">
        <path id="Layer_1-2" d="M509.53 2.32a8.17 8.17 0 0 0-8.66-1.76L5.21 193.05a8.17 8.17 0 0 0-1.05 14.73l102.72 57.87 35.65 174.26a8.16 8.16 0 0 0 1.44 3.36l.19.25a8.18 8.18 0 0 0 5.11 3c.26 0 .53.07.8.09h.51a8.13 8.13 0 0 0 4.3-1.23 8 8 0 0 0 1.21-.92l.32-.31 77.32-77.52a8.17 8.17 0 0 0-11.57-11.54L161.42 416l13.12-112.39L360 405.45a8.16 8.16 0 0 0 5.85.78l.59-.17a8.15 8.15 0 0 0 4.57-3.7l.15-.26a8.14 8.14 0 0 0 .52-1.2l139.81-390a8.17 8.17 0 0 0-1.96-8.58zM27.23 202L432.36 44.69 113.84 250.83zm135.49 82.22a8.17 8.17 0 0 0-1.95 2.27l-.19.35a8.14 8.14 0 0 0-.88 3l-11.33 97.06-25.11-122.7 275.1-178zm196.79 102.29l-177.29-97.3L485.93 33.89z" class="cls-1" data-name="Layer 1"/>
    </g>
</svg>
