<svg xmlns="http://www.w3.org/2000/svg" width="39" height="39">
    <path fill="#FAFAFA" fill-rule="evenodd" d="M19.239.002C8.471.146-.141 8.993.002 19.763c.144 10.764 8.991 19.379 19.759 19.235 10.767-.144 19.381-8.992 19.237-19.76C38.854 8.472 30.007-.142 19.239.002zm-.057 31.368l-.108-.002c-1.658-.049-2.827-1.271-2.78-2.905.046-1.606 1.243-2.771 2.847-2.771l.096.001c1.705.051 2.861 1.26 2.813 2.941-.048 1.61-1.226 2.736-2.868 2.736zm6.976-13.845c-.39.554-1.248 1.242-2.329 2.084l-1.19.822c-.653.507-1.047.985-1.195 1.455-.117.37-.174.468-.184 1.221l-.002.191h-4.543l.013-.384c.055-1.58.094-2.51.749-3.278 1.028-1.207 3.295-2.666 3.391-2.728.324-.245.598-.523.802-.821.477-.657.688-1.175.688-1.684 0-.705-.209-1.358-.623-1.94-.399-.56-1.155-.844-2.248-.844-1.085 0-1.828.344-2.272 1.05-.457.726-.688 1.489-.688 2.268v.194h-4.685l.009-.202c.121-2.87 1.145-4.936 3.042-6.142 1.193-.767 2.677-1.157 4.408-1.157 2.266 0 4.179.551 5.685 1.637 1.527 1.101 2.301 2.749 2.301 4.899 0 1.203-.38 2.332-1.129 3.359z"/>
</svg>
