<svg xmlns="http://www.w3.org/2000/svg" viewBox="0 0 211.43 211.43">
    <defs>
        <style>
            .cls-1{fill:#848585}.cls-2{fill:#0f72b6}
        </style>
    </defs>
    <g id="Layer_2" data-name="Layer 2">
        <g id="Layer_1-2" data-name="Layer 1">
            <path d="M105.73 50.9a54.82 54.82 0 1 0 54.81 54.83 54.91 54.91 0 0 0-54.81-54.83zm0 101.8a47 47 0 1 1 47-47 47 47 0 0 1-47 47zm0 0" class="cls-1"/>
            <path d="M200.56 82.23h-7.9a89.78 89.78 0 0 0-8.85-21.37l5.58-5.58a10.91 10.91 0 0 0 0-15.39L171.55 22a11.15 11.15 0 0 0-15.39 0l-5.58 5.58a89.21 89.21 0 0 0-21.38-8.83v-7.87A10.88 10.88 0 0 0 118.33 0H93.11a10.88 10.88 0 0 0-10.88 10.88v7.91a89.26 89.26 0 0 0-21.37 8.83L55.27 22a11.15 11.15 0 0 0-15.39 0L22 39.88a10.91 10.91 0 0 0 0 15.39l5.58 5.58a88.73 88.73 0 0 0-8.83 21.37h-7.87A10.88 10.88 0 0 0 0 93.11v25.22a10.88 10.88 0 0 0 10.88 10.88h7.91a89.06 89.06 0 0 0 8.83 21.37L22 156.16a10.94 10.94 0 0 0 0 15.41l17.84 17.82a11.16 11.16 0 0 0 15.39 0l5.58-5.58a90.36 90.36 0 0 0 21.37 8.85v7.9a10.88 10.88 0 0 0 10.88 10.88h25.22a10.88 10.88 0 0 0 10.88-10.88v-7.9a90.06 90.06 0 0 0 21.38-8.85l5.58 5.58a11.18 11.18 0 0 0 15.41 0l17.82-17.82a10.89 10.89 0 0 0 0-15.41l-5.58-5.58a90.11 90.11 0 0 0 8.85-21.37h7.9a10.88 10.88 0 0 0 10.88-10.88V93.11a10.88 10.88 0 0 0-10.88-10.88zm3.06 36.1a3.07 3.07 0 0 1-3.06 3.06h-14.07l-.71 3a81.4 81.4 0 0 1-10.23 24.72l-1.64 2.64 9.94 9.94a3 3 0 0 1 0 4.32L166 183.85a3.05 3.05 0 0 1-4.32 0l-9.94-9.95-2.64 1.64a81.4 81.4 0 0 1-24.72 10.23l-3 .71v14.07a3.07 3.07 0 0 1-3.06 3.06H93.11a3.07 3.07 0 0 1-3.11-3.05v-14.07l-3-.71a81.09 81.09 0 0 1-24.7-10.23l-2.64-1.64-9.94 9.95a3.08 3.08 0 0 1-4.34 0L27.59 166a3.07 3.07 0 0 1 0-4.32l9.94-9.94-1.64-2.64a81.4 81.4 0 0 1-10.23-24.72l-.7-3H10.88a3 3 0 0 1-3-3.06V93.11a3 3 0 0 1 3-3.06H25l.7-3a81.51 81.51 0 0 1 10.23-24.7l1.64-2.64-9.94-9.95a3.09 3.09 0 0 1 0-4.34l17.78-17.83a3.08 3.08 0 0 1 4.34 0l9.94 9.94 2.64-1.64A81.22 81.22 0 0 1 87 25.66l3-.7V10.88a3.05 3.05 0 0 1 3.06-3h25.22a3 3 0 0 1 3.06 3V25l3 .7a82 82 0 0 1 24.72 10.23l2.64 1.64 9.94-9.94a3.05 3.05 0 0 1 4.32 0l17.82 17.82a3 3 0 0 1 0 4.34l-9.94 9.95 1.64 2.64A81 81 0 0 1 185.78 87l.71 3h14.07a3.07 3.07 0 0 1 3.06 3.06zm0 0" class="cls-2"/>
            <path d="M105.73 66.57a39.16 39.16 0 1 0 39.16 39.16 39.18 39.18 0 0 0-39.16-39.16zm0 70.47A31.33 31.33 0 1 1 137 105.73 31.36 31.36 0 0 1 105.73 137zm0 0" class="cls-2"/>
        </g>
    </g>
</svg>
