<?xml version="1.0" encoding="utf-8"?>
<!-- Generator: Adobe Illustrator 21.1.0, SVG Export Plug-In . SVG Version: 6.00 Build 0)  -->
<svg version="1.1" id="Capa_1" xmlns="http://www.w3.org/2000/svg" xmlns:xlink="http://www.w3.org/1999/xlink" x="0px" y="0px"
	 viewBox="0 0 512 512" style="enable-background:new 0 0 512 512;" xml:space="preserve">
<style type="text/css">
	.st0{fill:#0F72B6;}
	.st1{fill:#848585;}
</style>
<g>
	<g>
		<path class="st0" d="M449.5,61.2H62.6C28.1,61.2,0,89.3,0,123.8v264.4c0,34.5,28.1,62.6,62.6,62.6h386.8
			c34.5,0,62.6-28.1,62.6-62.6V123.9C512.1,89.4,484,61.2,449.5,61.2z M483.5,388.2c0,18.8-15.3,34-34,34H62.6
			c-18.8,0-34-15.3-34-34V123.9c0-18.8,15.3-34,34-34h386.8c18.8,0,34,15.3,34,34v264.3H483.5z"/>
		<path class="st1" d="M322.9,252.7l125.2-112.3c5.8-5.3,6.4-14.3,1.1-20.2c-5.3-5.8-14.3-6.4-20.2-1.1l-172.7,155L222.6,244
			c-0.1-0.1-0.2-0.2-0.2-0.3c-0.7-0.7-1.5-1.4-2.3-2L82.9,119c-5.9-5.3-14.9-4.8-20.2,1.2s-4.8,14.9,1.2,20.2l126.7,113.2
			L64.4,371.8c-5.7,5.4-6,14.4-0.6,20.2c2.9,3,6.7,4.6,10.5,4.6c3.5,0,7-1.3,9.7-3.8L212.1,273l34.7,31c2.8,2.4,6.1,3.6,9.5,3.6
			c3.4,0,6.9-1.3,9.5-3.7l35.7-32l127.3,121c2.8,2.6,6.4,3.9,9.9,3.9c3.8,0,7.5-1.5,10.4-4.4c5.4-5.7,5.2-14.8-0.5-20.2L322.9,252.7
			z"/>
	</g>
</g>
</svg>
